<?xml version="1.0" encoding="UTF-8"?>
<svg xmlns="http://www.w3.org/2000/svg" width="247" height="84" viewBox="0 0 247 84" fill="none">
  <g clip-path="url(#clip0_7818_1761)">
    <path d="M39.165 82.0175C38.8808 82.0175 38.5986 81.9484 38.3007 81.8083C34.1214 79.8327 29.5829 77.6952 24.4268 75.2716C21.7827 74.0302 19.1365 72.7907 16.4904 71.5513C15.1368 70.9178 13.7851 70.2842 12.4334 69.6507C8.69806 67.9001 4.96074 66.1495 1.22539 64.3969C1.0991 64.3377 0.990569 64.2765 0.876121 64.2133C0.82679 64.1857 0.775485 64.1561 0.716288 64.1245L0 63.7357L16.7706 1.98247H61.2002L61.508 2.4364C61.6422 2.63377 61.6975 2.71469 64.2528 11.9612C65.715 17.2525 67.6724 24.3912 69.7661 32.0588C73.7106 46.5196 77.8169 61.7068 78.0971 63.0331L78.2648 63.8304L75.7904 65.0008C74.4545 65.6324 73.1304 66.26 71.8064 66.8836C70.8671 67.3257 69.9279 67.7619 68.9866 68.2001C68.2269 68.5533 67.4652 68.9086 66.7075 69.2639C63.797 70.6276 60.6714 72.0921 57.5438 73.5624C56.4802 74.0637 55.4166 74.5651 54.353 75.0683C53.3664 75.5361 52.3798 76.0019 51.3912 76.4676C49.4969 77.3597 47.6006 78.2479 45.7063 79.136L43.7054 80.0755C43.3542 80.2393 43.0049 80.4031 42.6537 80.5669C41.7854 80.9715 40.8876 81.3919 40.0135 81.8142C39.7313 81.9504 39.455 82.0175 39.1729 82.0175H39.165Z" fill="url(#paint0_linear_7818_1761)"></path>
    <path d="M59.4307 4.59558H18.8766C13.6534 23.8267 8.43216 43.0421 3.20898 62.2713C3.42999 62.3818 3.60955 62.4746 3.79109 62.5614C6.42932 63.7989 9.0715 65.0284 11.7078 66.2699C14.3282 67.5034 16.9428 68.7527 19.5652 69.9862C23.1901 71.6915 26.8189 73.3888 30.4457 75.0901C33.2418 76.4006 36.0379 77.7111 38.83 79.0294C39.0727 79.1439 39.272 79.1281 39.5068 79.0156C42.0346 77.8216 44.5682 76.6374 47.0999 75.4473C49.4599 74.3381 51.8199 73.2269 54.1779 72.1158C57.6784 70.4678 61.179 68.8178 64.6815 67.1738C67.3059 65.9422 69.9343 64.7206 72.5587 63.491C73.4052 63.0943 74.2458 62.6857 75.1002 62.2772C69.8711 43.0322 64.6519 23.8228 59.4267 4.59755L59.4307 4.59558Z" fill="url(#paint1_linear_7818_1761)"></path>
    <path d="M77.0832 63.2443C75.1534 64.1561 73.2611 65.0561 71.3628 65.9482C69.6658 66.7455 67.9629 67.533 66.2639 68.3284C63.2074 69.7593 60.1508 71.1921 57.0982 72.627C55.046 73.5921 52.9978 74.567 50.9456 75.5322C48.3844 76.738 45.8211 77.938 43.2598 79.14C42.0246 79.7202 40.7834 80.2886 39.5561 80.8847C39.262 81.0268 39.0292 81.011 38.7411 80.8748C34.1178 78.69 29.4925 76.5111 24.8652 74.3381C20.8694 72.4612 16.8677 70.5921 12.8699 68.7172C9.13453 66.9665 5.39721 65.2159 1.66185 63.4633C1.52373 63.3982 1.39349 63.3193 1.20801 63.2186C6.65614 43.1625 12.1062 23.0945 17.5603 3.01469H60.654C60.9184 3.40547 76.5544 60.72 77.0852 63.2443H77.0832ZM59.4306 4.59558H18.8764C13.6533 23.8267 8.43206 43.0421 3.20888 62.2713C3.42988 62.3818 3.60945 62.4745 3.79099 62.5614C6.42921 63.7989 9.07139 65.0284 11.7076 66.2699C14.3281 67.5034 16.9427 68.7527 19.5651 69.9862C23.19 71.6914 26.8188 73.3888 30.4456 75.0901C33.2417 76.4006 36.0378 77.711 38.8299 79.0294C39.0726 79.1439 39.2719 79.1281 39.5067 79.0156C42.0345 77.8216 44.5681 76.6374 47.0998 75.4473C49.4598 74.3381 51.8198 73.2269 54.1778 72.1158C57.6783 70.4678 61.1789 68.8178 64.6814 67.1738C67.3058 65.9422 69.9342 64.7205 72.5586 63.491C73.4051 63.0943 74.2457 62.6857 75.1001 62.2772C69.871 43.0322 64.6518 23.8228 59.4266 4.59755L59.4306 4.59558Z" fill="white"></path>
    <g style="mix-blend-mode:multiply">
      <path d="M59.4307 4.59557H18.8765C13.6534 23.8267 8.43216 43.0421 3.20898 62.2713C3.42999 62.3818 3.60955 62.4745 3.79109 62.5614C4.05353 62.6837 4.31795 62.8081 4.58039 62.9304L60.1864 7.37446C59.9339 6.44685 59.6833 5.52121 59.4307 4.5936V4.59557Z" fill="#DEDEDE"></path>
    </g>
    <g style="mix-blend-mode:multiply">
      <path d="M17.5387 9.51981C12.7615 27.1069 7.98621 44.6842 3.20898 62.2713C3.42999 62.3818 3.60955 62.4745 3.79109 62.5614C6.42932 63.7989 9.0715 65.0284 11.7078 66.2699C14.3282 67.5034 16.9428 68.7527 19.5652 69.9862C23.1901 71.6914 26.8189 73.3888 30.4457 75.09C33.2418 76.4006 36.0379 77.711 38.83 79.0294C39.0727 79.1439 39.272 79.1281 39.5068 79.0156C42.0346 77.8216 44.5682 76.6374 47.0999 75.4473C49.4599 74.3381 51.8199 73.2269 54.1779 72.1158C57.6784 70.4678 61.179 68.8178 64.6815 67.1738C67.3059 65.9422 69.9343 64.7205 72.5587 63.491C72.6968 63.4258 72.833 63.3607 72.9711 63.2956C66.3173 37.7409 43.3803 15.7032 17.5387 9.51981Z" fill="#DEDEDE"></path>
    </g>
    <path d="M57.1199 46.6854C57.2383 46.7288 57.3449 46.7683 57.4554 46.8098C58.0928 46.3696 58.5742 45.7973 58.9531 45.1381C59.3004 44.5322 59.2412 44.2105 58.7498 43.725C58.2408 43.2197 57.6606 42.7638 57.2443 42.1914C56.4116 41.0467 56.161 39.7402 56.4727 38.3448C56.5082 38.1869 56.597 38.0409 56.6878 37.8257C57.2739 38.3349 57.6922 38.8955 58.0316 39.4994C58.3552 40.0757 58.59 40.7033 58.8682 41.3072C58.959 41.5026 59.0596 41.6941 59.1445 41.8658C59.4365 41.8934 59.6299 41.8243 59.6437 41.5678C59.699 40.4191 59.7246 39.2783 59.0636 38.2461C58.8189 37.8652 58.5505 37.6284 58.0671 37.6836C56.6819 37.8396 55.8551 37.0876 55.3006 35.931C55.0875 35.487 54.9099 35.0251 54.7086 34.5594C54.9218 34.2673 55.2138 34.1567 55.5177 34.3008C56.0209 34.5377 56.5142 34.812 56.9818 35.1159C57.2936 35.3192 57.5521 35.6054 57.8422 35.8442C57.9546 35.937 58.0868 36.0041 58.2368 36.1008C58.4657 35.4613 58.5308 34.8732 58.1993 34.291C57.9329 33.8252 57.5422 33.6101 56.9976 33.5528C55.4861 33.393 54.0397 33.0337 52.9189 31.9029C52.7472 31.7292 52.6288 31.5022 52.4749 31.2831C52.9682 30.8943 53.4398 30.7779 53.9766 30.8884C54.7974 31.0601 55.494 31.4805 56.1767 31.9423C56.5517 32.1969 56.9542 32.414 57.41 32.6864C57.4534 32.0292 57.1121 31.6423 56.8082 31.2851C56.4786 30.8983 56.0643 30.5805 55.6696 30.2529C55.2059 29.868 54.6751 29.793 54.0792 29.8858C53.0432 30.0476 52.0329 29.9154 51.0838 29.4397C50.3853 29.0904 49.9176 28.5279 49.5703 27.7523C49.9038 27.7523 50.1879 27.7345 50.4681 27.7562C51.2022 27.8135 51.95 27.8174 52.6604 27.9812C53.2287 28.1115 53.7536 28.4332 54.2883 28.6898C54.5449 28.8121 54.7817 28.9799 55.1349 29.1911C55.1072 28.9384 55.1289 28.7786 55.0678 28.6641C54.8093 28.1885 54.5626 27.699 54.243 27.2628C53.2287 25.8714 53.0117 24.3931 53.6628 22.7234C54.3515 23.4024 54.6317 24.2017 54.7738 25.1037C54.8922 25.1293 55.0184 25.1589 55.1664 25.1905C55.3302 24.8352 55.4861 24.5037 55.6519 24.1445C56.2063 24.4583 56.2537 24.9892 56.3701 25.4708C56.4727 25.899 56.4984 26.349 56.6207 26.7714C56.7924 27.3615 56.6622 27.8845 56.3839 28.3977C55.9163 29.2601 56.159 29.9529 57.1456 30.4305C56.822 29.0825 57.0331 27.8983 58.0789 26.9234C58.4104 27.1997 58.4736 27.5687 58.5624 27.9279C58.8169 28.9483 58.5387 29.9193 58.3177 30.9022C58.225 31.3147 58.1776 31.739 58.1579 32.1614C58.15 32.3371 58.2664 32.5167 58.3256 32.6943C58.3631 32.6884 58.3986 32.6824 58.4361 32.6745C58.6729 31.8279 58.9195 30.9831 59.1445 30.1345C59.3616 29.3194 59.7503 28.6128 60.4232 28.0898C60.6303 27.9299 60.881 27.8253 61.1177 27.6931C61.5203 28.2595 61.3013 28.7865 61.1868 29.2819C60.9441 30.3358 60.3265 31.2002 59.699 32.0568C59.3892 32.4792 59.1031 32.9173 58.9077 33.2015C59.1267 34.3541 59.3004 35.3251 59.5017 36.2883C59.551 36.5251 59.5628 36.8271 59.9713 36.9613C59.9713 36.7126 59.9654 36.5152 59.9713 36.3199C60.0009 35.4811 60.0088 34.6423 60.0719 33.8074C60.1351 32.9627 60.5968 32.2996 61.173 31.7213C61.4729 31.4193 61.8222 31.1667 62.1557 30.8983C62.2129 30.8509 62.3017 30.843 62.4043 30.8055C62.8128 31.895 62.1715 32.7614 61.8478 33.7679C62.9667 33.2094 63.7303 32.2719 64.7643 31.7272C65.0504 32.0509 64.9735 32.3607 64.9083 32.6509C64.6913 33.6298 64.1408 34.435 63.4876 35.1594C62.6253 36.1146 61.6841 36.9988 60.6067 37.7132C60.1844 37.9935 60.066 38.3685 60.1193 38.8106C60.1548 39.1047 60.2831 39.3889 60.3857 39.7303C60.7586 39.2448 61.0842 38.8205 61.4137 38.3961C61.7492 37.9639 62.134 37.5869 62.6293 37.3047C62.8522 38.3863 62.5641 39.2882 61.9662 40.1408C61.2736 41.1296 61.2973 41.1454 61.2184 42.3099C60.8829 42.7342 60.1351 42.8467 60.2179 43.5888C60.4449 43.7664 60.5633 43.6223 60.7073 43.4842C61.7847 42.4539 63.014 41.6743 64.4525 41.2441C65.1274 41.0428 65.8062 40.8908 66.5284 40.9757C66.7553 41.2382 66.6862 41.4947 66.4534 41.6822C66.1101 41.9605 65.7549 42.2408 65.3642 42.4381C64.6952 42.7776 64.0026 43.0776 63.3021 43.346C62.9746 43.4704 62.7397 43.65 62.5779 43.948C62.4477 44.1888 62.2859 44.4157 62.1813 44.6664C61.8064 45.5703 61.171 46.2295 60.3462 46.7407C59.8549 47.0466 59.3912 47.3999 58.9294 47.7512C58.7637 47.8775 58.6393 48.0591 58.4361 48.2801C58.6591 48.3906 58.7952 48.4597 58.9156 48.5189C59.5747 47.7689 60.4172 47.5084 61.2973 47.3584C62.5049 47.1512 63.7224 47.1966 64.9281 47.3703C65.2852 47.4216 65.6404 47.5972 65.9542 47.7887C66.2797 47.986 66.2817 48.2624 65.9838 48.4952C65.7312 48.6946 65.449 48.8742 65.153 48.9985C64.1131 49.4327 63.0397 49.7485 61.913 49.865C61.6249 49.8946 61.3387 49.9399 61.0507 49.9636C60.4922 50.011 59.9871 49.936 59.5135 49.563C59.0853 49.2255 58.6117 49.2038 57.7356 49.2571C57.2522 49.6281 56.8476 49.9676 56.4135 50.2656C55.9025 50.6149 55.8669 50.5952 55.4466 50.0722C55.638 49.8827 55.8354 49.6932 56.0248 49.4979C56.7332 48.7696 56.7707 47.7334 56.2517 47.0051C55.3006 45.669 55.1842 44.1986 55.4072 42.6454C55.4624 42.2566 55.4664 41.8559 55.8729 41.5401C55.9755 41.6211 56.1175 41.6842 56.1886 41.7947C56.7233 42.6256 57.0548 43.5335 57.1061 44.5223C57.1436 45.2368 57.114 45.9552 57.114 46.6874L57.1199 46.6854Z" fill="white"></path>
    <path d="M19.5945 36.9613C19.6754 36.8764 19.7957 36.8034 19.8312 36.7028C19.924 36.4304 19.9891 36.1482 20.0503 35.8659C20.1963 35.1673 20.3009 34.4587 20.4903 33.7719C20.583 33.4364 20.5495 33.166 20.368 32.9055C20.0562 32.4575 19.7148 32.0272 19.403 31.5772C18.9176 30.8746 18.4697 30.1503 18.2763 29.3016C18.1638 28.8042 18.077 28.301 18.2507 27.772C18.5703 27.7247 18.7973 27.922 19.0183 28.0858C19.6596 28.5635 20.0345 29.2365 20.2752 29.9766C20.5002 30.6693 20.6738 31.3798 20.8672 32.0825C20.9205 32.2759 20.9599 32.4732 21.0093 32.6805C21.3033 32.5561 21.2835 32.3292 21.3053 32.1101C21.3743 31.4075 21.104 30.768 20.954 30.1068C20.7409 29.1713 20.6916 28.2516 21.0823 27.3477C21.1237 27.253 21.1592 27.1582 21.2066 27.0655C21.2283 27.022 21.2678 26.9885 21.3191 26.9273C21.8913 27.2944 22.207 27.8569 22.3313 28.4648C22.4557 29.0687 22.4004 29.7082 22.4221 30.3239C23.1502 30.1384 23.5824 29.2286 23.166 28.5654C22.7201 27.853 22.7043 27.1365 22.9352 26.3589C23.0792 25.8714 23.1266 25.3563 23.2686 24.8688C23.3456 24.6063 23.5311 24.3774 23.6692 24.1326C23.7126 24.1386 23.7541 24.1445 23.7975 24.1504C23.9573 24.482 24.1171 24.8135 24.2888 25.1747C24.4289 25.1589 24.5749 25.1431 24.7683 25.1234C24.7505 24.184 25.1314 23.4399 25.7865 22.7077C26.0766 23.4675 26.2226 24.1544 26.1555 24.8708C26.0706 25.7747 25.7194 26.5681 25.1669 27.2964C24.8512 27.7108 24.6361 28.2023 24.3914 28.6681C24.3342 28.7786 24.3421 28.9227 24.3026 29.1457C24.5019 29.0608 24.6223 29.0213 24.7308 28.9602C25.1314 28.7332 25.5221 28.4885 25.9266 28.2674C26.337 28.0444 26.7751 27.9556 27.2506 27.9418C27.8288 27.926 28.403 27.8076 28.9812 27.7543C29.2535 27.7286 29.5278 27.7503 29.883 27.7503C29.5988 28.3621 29.2693 28.8339 28.7444 29.195C27.8209 29.8325 26.783 30.0516 25.7214 29.9055C24.8571 29.7871 24.1428 29.9055 23.4817 30.4582C22.9786 30.8785 22.5208 31.3404 22.2031 31.9186C22.1024 32.1022 22.0728 32.3252 22.0097 32.5285C22.0432 32.5601 22.0788 32.5917 22.1123 32.6232C22.4714 32.416 22.8424 32.2265 23.1877 31.9976C23.902 31.5239 24.6183 31.072 25.4767 30.8924C26.0154 30.7799 26.4771 30.922 26.9408 31.2121C26.785 31.7213 26.4416 32.045 26.0509 32.3292C25.1768 32.9686 24.1744 33.2805 23.1206 33.4522C22.8345 33.4995 22.5425 33.5035 22.2603 33.5647C21.4651 33.7423 21.0625 34.2298 21.027 35.2067C21.0172 35.485 21.1217 35.7653 21.1908 36.1482C21.6328 35.787 22.0018 35.4751 22.3826 35.1752C22.8247 34.8258 23.2607 34.4824 23.8211 34.3127C24.1803 34.2041 24.4486 34.2712 24.7407 34.5239C24.3835 35.3863 24.1329 36.2922 23.4285 36.9692C22.9411 37.4369 22.4063 37.7231 21.694 37.6915C20.7231 37.6501 20.4449 37.8692 20.0996 38.781C19.7839 39.6119 19.7286 40.4783 19.7859 41.3546C19.8036 41.629 19.8687 41.923 20.3364 41.8618C20.4785 41.5204 20.6324 41.1474 20.7863 40.7763C21.2342 39.6928 21.8183 38.702 22.7457 37.8119C22.8661 38.1218 23.0259 38.3705 23.0555 38.6369C23.2331 40.1941 22.8602 41.5934 21.7611 42.748C21.4671 43.0579 21.1356 43.3342 20.806 43.6065C20.218 44.0901 20.0917 44.5342 20.5081 45.1637C20.8336 45.6572 21.2658 46.0815 21.6466 46.5394C21.8242 46.7545 22.0334 46.7979 22.3392 46.6598C22.1912 44.8736 22.2879 43.1092 23.3949 41.5776C23.7462 41.5678 23.831 41.775 23.9198 42.0158C24.1744 42.6947 24.1092 43.4013 24.127 44.098C24.1526 45.1578 23.7896 46.0854 23.2055 46.9716C22.651 47.8143 22.724 48.7222 23.4364 49.5117C23.608 49.7011 23.8231 49.8492 24.0086 50.0071C23.5962 50.5715 23.4877 50.6011 23.022 50.2636C22.651 49.9932 22.2998 49.6972 21.9406 49.411C21.5263 49.0794 21.0487 49.2196 20.6107 49.2867C20.2871 49.336 19.9615 49.5097 19.6892 49.7011C19.4169 49.8946 19.1485 49.9636 18.8288 49.9597C17.1161 49.9478 15.4901 49.565 13.9529 48.8189C13.6767 48.6847 13.4517 48.4439 13.2485 48.288C13.2643 47.7986 13.5504 47.6407 13.8424 47.5637C14.3673 47.4236 14.904 47.2973 15.4427 47.2538C16.1097 47.2025 16.7846 47.2104 17.4515 47.2499C18.2921 47.2992 19.0972 47.5341 19.8411 47.9328C20.0759 48.0571 20.2673 48.2624 20.5495 48.4854C20.6107 48.4538 20.81 48.4143 20.8376 48.3235C20.8711 48.2111 20.8021 48.0078 20.7054 47.9288C20.2594 47.5617 19.7898 47.2183 19.3241 46.8769C19.1031 46.715 18.8722 46.567 18.6414 46.421C18.0435 46.0381 17.6252 45.4973 17.3686 44.8499C16.9917 43.9006 16.3485 43.3243 15.3539 43.0164C14.6495 42.7993 14.0023 42.3789 13.3531 42.0059C12.8519 41.7158 12.7769 41.4948 12.8775 40.9737C13.8267 40.8691 14.7265 41.1079 15.6045 41.4434C16.7846 41.8954 17.8008 42.6059 18.7242 43.4605C18.8348 43.5631 18.9749 43.6302 19.1248 43.7309C19.213 43.4059 18.9018 42.9217 18.1915 42.2783C18.3572 41.3823 17.8817 40.6737 17.3746 39.9711C16.8063 39.1836 16.6385 38.3014 16.8003 37.2712C17.7357 37.9205 18.3888 38.7632 19.0262 39.7303C19.2215 39.1915 19.5037 38.7257 19.2235 38.1948C19.1189 37.9955 18.9472 37.8139 18.7657 37.6777C17.341 36.5962 15.9775 35.4534 15.0441 33.8943C14.7186 33.3515 14.4699 32.7673 14.4857 32.1101C14.4877 32.0114 14.5212 31.9147 14.5429 31.8081C14.8942 31.7331 15.1033 31.9621 15.3263 32.1298C16.0446 32.6726 16.7569 33.2252 17.5304 33.7364C17.2404 32.7772 16.6977 31.889 17.0391 30.772C17.2147 30.8825 17.3607 30.9555 17.4831 31.0542C18.1777 31.6147 18.8782 32.1831 19.1663 33.0693C19.3123 33.5153 19.4267 33.989 19.4543 34.4548C19.4997 35.258 19.4682 36.0672 19.4682 36.8745C19.5096 36.9021 19.5491 36.9297 19.5905 36.9574L19.5945 36.9613Z" fill="white"></path>
    <path d="M57.8139 57.7595C57.218 58.0476 56.7168 58.2904 56.2077 58.5371C56.2768 59.143 56.3439 59.7292 56.4129 60.3312C54.6567 60.7732 52.9459 61.1857 51.247 61.6476C50.8918 61.7443 50.655 61.6811 50.4123 61.466C49.9762 61.0792 49.5441 60.6884 49.031 60.2305C47.2551 60.4081 45.4101 60.5917 43.573 60.7752C43.4014 61.3574 43.2455 61.8903 43.0876 62.4291H37.2764C37.1284 61.9101 36.9804 61.391 36.8068 60.7831C34.9973 60.5996 33.1543 60.414 31.3429 60.2305C30.8574 60.6647 30.4233 61.0515 29.9912 61.4403C29.7524 61.6555 29.5314 61.7541 29.1664 61.6555C27.4635 61.1936 25.7467 60.7811 23.9748 60.3371C24.0379 59.7529 24.101 59.1667 24.1681 58.5371C23.6788 58.3003 23.1776 58.0595 22.6191 57.7911C23.1026 57.0865 23.659 56.522 24.324 56.074C24.4503 55.9891 24.697 56.0227 24.8647 56.074C26.9327 56.6918 29.0401 57.1417 31.1593 57.5306C32.2131 57.724 33.2806 57.8424 34.3442 57.9786C35.2084 58.0891 36.0747 58.1759 36.939 58.2726C36.9903 58.2786 37.0416 58.2865 37.0929 58.2884C38.4465 58.324 39.8022 58.4108 41.1558 58.3772C42.4009 58.3476 43.6441 58.2036 44.8872 58.0891C45.8383 58.0003 46.7973 57.9292 47.7366 57.7634C49.5579 57.4417 51.3733 57.0746 53.1847 56.6937C53.9641 56.5299 54.7357 56.3128 55.4954 56.074C55.8427 55.9635 56.1189 56.0424 56.3439 56.2556C56.8352 56.7214 57.293 57.2227 57.8159 57.7615L57.8139 57.7595Z" fill="white"></path>
    <path d="M30.0995 38.8619C29.1148 42.0138 28.1282 45.1637 27.1436 48.3156C27.3646 48.442 27.5165 48.5466 27.6842 48.6196C28.6255 49.036 29.5687 49.4465 30.5139 49.8531C31.3229 50.2024 32.1339 50.5459 32.9449 50.8893C33.6454 51.1873 34.3479 51.4794 35.0444 51.7833C35.6068 52.0281 36.1613 52.2866 36.7197 52.5392C37.5781 52.9261 38.4325 53.3228 39.2948 53.6958C39.5829 53.8201 39.8947 53.9583 40.1966 53.9622C40.4807 53.9642 40.7767 53.8201 41.049 53.6997C42.0514 53.2517 43.0341 52.7563 44.0464 52.334C44.962 51.9531 45.8795 51.582 46.7675 51.134C47.2292 50.9011 47.7048 50.6959 48.1843 50.5005C48.7822 50.2557 49.3939 50.0426 49.9918 49.7978C50.6074 49.5452 51.2152 49.2748 51.821 49.0025C52.2689 48.8012 52.7089 48.5801 53.22 48.3374C52.2314 45.1637 51.2467 42.0079 50.268 38.8619H30.0975H30.0995Z" fill="#E30613"></path>
    <path d="M50.2682 38.8619C48.8001 34.1489 47.3379 29.4595 45.8797 24.782H34.5C33.0319 29.4773 31.5658 34.1686 30.0977 38.8619H50.2682Z" fill="white"></path>
    <path d="M41.4265 31.4805C43.0386 31.4785 44.2956 30.7818 45.7341 30.2766C45.1894 32.0154 45.1539 33.6574 45.738 35.4041C45.5012 35.3528 45.3552 35.3311 45.2151 35.2876C44.114 34.9442 43.013 34.5949 41.9099 34.2535C41.8191 34.2258 41.7106 34.2495 41.4344 34.2495C41.906 35.487 42.348 36.6435 42.8275 37.9007C41.0298 37.3738 39.3151 37.3462 37.4918 37.9007C37.9674 36.6455 38.4035 35.4909 38.883 34.2239C37.2846 34.3107 35.9941 34.8673 34.5655 35.4988C35.1239 33.6989 35.1654 32.0529 34.5596 30.2943C36.004 30.7463 37.257 31.4963 38.8711 31.4667C38.4113 30.2489 37.9832 29.1181 37.5076 27.8569C39.3013 28.3483 41.0121 28.37 42.8137 27.849C42.3282 29.118 41.8961 30.2489 41.4265 31.4805Z" fill="#E30613"></path>
    <path d="M34.5234 48.067C35.958 47.5696 37.2445 46.8473 38.8606 46.8413C38.3871 48.0887 37.9529 49.2255 37.4695 50.4946C39.3007 49.9498 41.0213 49.9498 42.8269 50.4946C42.3513 49.2275 41.9152 48.0689 41.4456 46.8196C43.0281 46.8788 44.3009 47.5065 45.765 48.0689C45.1573 46.267 45.1829 44.6092 45.763 42.8171C44.291 43.3796 43.0104 44.0131 41.4377 44.0644C41.9172 42.8072 42.3533 41.6566 42.8032 40.4744C41.8797 40.6066 41.0174 40.8257 40.1571 40.8237C39.2849 40.8237 38.4127 40.6007 37.4991 40.4685C37.9529 41.6724 38.387 42.823 38.8587 44.0743C37.2327 43.9954 35.9284 43.3105 34.5372 42.8368C35.1253 44.6072 35.1411 46.3025 34.5234 48.067Z" fill="white"></path>
    <path d="M23.2244 11.0153V10.4725L24.7898 8.53917H23.4013V8.03501H25.5826V8.50258L23.9502 10.5131H25.6456V11.0153H23.2244ZM26.0278 11.0153V8.03501H28.2376V8.53917H26.6295V9.19987H28.1258V9.702H26.6295V10.5131H28.2945V11.0153H26.0278ZM28.6523 10.0456L29.2378 9.98864C29.273 10.1852 29.3441 10.3295 29.4512 10.4216C29.5596 10.5138 29.7053 10.5599 29.8883 10.5599C30.0821 10.5599 30.2278 10.5192 30.3254 10.4379C30.4243 10.3552 30.4738 10.259 30.4738 10.1492C30.4738 10.0788 30.4528 10.0191 30.4107 9.97034C30.3701 9.9202 30.2983 9.87683 30.1953 9.84024C30.1248 9.81584 29.9642 9.77247 29.7135 9.71013C29.3909 9.63017 29.1646 9.53191 29.0345 9.41536C28.8515 9.25137 28.76 9.05147 28.76 8.81565C28.76 8.66386 28.8027 8.52223 28.8881 8.39077C28.9748 8.25796 29.0988 8.15699 29.2601 8.08787C29.4228 8.01875 29.6186 7.98419 29.8476 7.98419C30.2217 7.98419 30.5029 8.06618 30.6913 8.23017C30.881 8.39416 30.9806 8.61304 30.9901 8.8868L30.3884 8.91323C30.3626 8.76008 30.3071 8.65031 30.2217 8.5839C30.1377 8.51613 30.0109 8.48225 29.8415 8.48225C29.6667 8.48225 29.5298 8.51817 29.4309 8.59C29.3672 8.63608 29.3353 8.69774 29.3353 8.77499C29.3353 8.84547 29.3652 8.90578 29.4248 8.95592C29.5007 9.01962 29.685 9.08603 29.9777 9.15515C30.2705 9.22427 30.4866 9.29609 30.6262 9.37063C30.7672 9.44382 30.877 9.54479 30.9556 9.67354C31.0355 9.80093 31.0755 9.95882 31.0755 10.1472C31.0755 10.318 31.0281 10.4779 30.9332 10.627C30.8383 10.7761 30.7042 10.8872 30.5307 10.9604C30.3572 11.0322 30.141 11.0681 29.8822 11.0681C29.5054 11.0681 29.2161 10.9814 29.0141 10.8079C28.8122 10.6331 28.6916 10.379 28.6523 10.0456ZM31.5817 11.0153V8.03501H32.5473C32.9133 8.03501 33.1518 8.04992 33.2629 8.07974C33.4337 8.12446 33.5767 8.22204 33.6919 8.37248C33.8071 8.52156 33.8647 8.71468 33.8647 8.95186C33.8647 9.13482 33.8315 9.28864 33.765 9.41333C33.6986 9.53801 33.6139 9.63627 33.5109 9.7081C33.4093 9.77857 33.3056 9.82533 33.1999 9.84837C33.0562 9.87683 32.8482 9.89106 32.5758 9.89106H32.1834V11.0153H31.5817ZM32.1834 8.53917V9.38486H32.5128C32.75 9.38486 32.9085 9.36928 32.9885 9.33811C33.0684 9.30694 33.1308 9.25815 33.1755 9.19174C33.2216 9.12533 33.2446 9.04808 33.2446 8.95999C33.2446 8.85156 33.2128 8.76212 33.1491 8.69164C33.0854 8.62117 33.0047 8.57712 32.9072 8.5595C32.8353 8.54595 32.691 8.53917 32.4742 8.53917H32.1834ZM34.2367 9.54343C34.2367 9.23985 34.2821 8.98506 34.3729 8.77906C34.4407 8.62727 34.5328 8.49106 34.6494 8.37044C34.7673 8.24982 34.896 8.16038 35.0356 8.1021C35.2213 8.02349 35.4354 7.98419 35.678 7.98419C36.1171 7.98419 36.4681 8.12039 36.7311 8.3928C36.9953 8.66521 37.1275 9.04401 37.1275 9.5292C37.1275 10.0103 36.9967 10.3871 36.7351 10.6595C36.4736 10.9306 36.1239 11.0661 35.6862 11.0661C35.243 11.0661 34.8906 10.9312 34.629 10.6615C34.3675 10.3905 34.2367 10.0178 34.2367 9.54343ZM34.8567 9.5231C34.8567 9.86057 34.9347 10.1167 35.0905 10.2915C35.2464 10.465 35.4442 10.5518 35.6841 10.5518C35.924 10.5518 36.1205 10.4657 36.2737 10.2936C36.4282 10.1201 36.5054 9.86057 36.5054 9.51497C36.5054 9.17344 36.4302 8.91865 36.2798 8.7506C36.1307 8.58254 35.9321 8.49852 35.6841 8.49852C35.4361 8.49852 35.2362 8.5839 35.0844 8.75466C34.9326 8.92407 34.8567 9.18022 34.8567 9.5231ZM35.3121 7.86425L35.5926 7.25641H36.233L35.674 7.86425H35.3121ZM37.6316 9.52717V8.03501H38.2314V9.02097L38.9002 8.45989V8.95186L38.2314 9.51091V10.5131H39.7296V11.0153H37.6316V10.011L37.3165 10.2732V9.79145L37.6316 9.52717ZM41.1506 10.0456L41.7361 9.98864C41.7713 10.1852 41.8425 10.3295 41.9495 10.4216C42.058 10.5138 42.2037 10.5599 42.3866 10.5599C42.5804 10.5599 42.7261 10.5192 42.8237 10.4379C42.9226 10.3552 42.9721 10.259 42.9721 10.1492C42.9721 10.0788 42.9511 10.0191 42.9091 9.97034C42.8684 9.9202 42.7966 9.87683 42.6936 9.84024C42.6231 9.81584 42.4625 9.77247 42.2118 9.71013C41.8892 9.63017 41.6629 9.53191 41.5328 9.41536C41.3498 9.25137 41.2584 9.05147 41.2584 8.81565C41.2584 8.66386 41.301 8.52223 41.3864 8.39077C41.4732 8.25796 41.5972 8.15699 41.7585 8.08787C41.9211 8.01875 42.1169 7.98419 42.346 7.98419C42.72 7.98419 43.0012 8.06618 43.1896 8.23017C43.3794 8.39416 43.479 8.61304 43.4885 8.8868L42.8867 8.91323C42.861 8.76008 42.8054 8.65031 42.72 8.5839C42.636 8.51613 42.5093 8.48225 42.3399 8.48225C42.165 8.48225 42.0282 8.51817 41.9292 8.59C41.8655 8.63608 41.8337 8.69774 41.8337 8.77499C41.8337 8.84547 41.8635 8.90578 41.9231 8.95592C41.999 9.01962 42.1833 9.08603 42.4761 9.15515C42.7688 9.22427 42.985 9.29609 43.1246 9.37063C43.2655 9.44382 43.3753 9.54479 43.4539 9.67354C43.5339 9.80093 43.5738 9.95882 43.5738 10.1472C43.5738 10.318 43.5264 10.4779 43.4315 10.627C43.3367 10.7761 43.2025 10.8872 43.029 10.9604C42.8555 11.0322 42.6394 11.0681 42.3805 11.0681C42.0038 11.0681 41.7144 10.9814 41.5125 10.8079C41.3105 10.6331 41.1899 10.379 41.1506 10.0456ZM43.8219 11.0153V10.4725L45.3872 8.53917H43.9987V8.03501H46.18V8.50258L44.5476 10.5131H46.2431V11.0153H43.8219ZM46.6334 11.0153V8.03501H47.2351V9.35844L48.4508 8.03501H49.2599L48.1377 9.1958L49.3209 11.0153H48.5423L47.723 9.61662L47.2351 10.1147V11.0153H46.6334ZM49.512 9.54343C49.512 9.23985 49.5574 8.98506 49.6482 8.77906C49.7159 8.62727 49.8081 8.49106 49.9247 8.37044C50.0426 8.24982 50.1713 8.16038 50.3109 8.1021C50.4966 8.02349 50.7107 7.98419 50.9533 7.98419C51.3924 7.98419 51.7434 8.12039 52.0064 8.3928C52.2706 8.66521 52.4028 9.04401 52.4028 9.5292C52.4028 10.0103 52.272 10.3871 52.0104 10.6595C51.7489 10.9306 51.3992 11.0661 50.9614 11.0661C50.5183 11.0661 50.1659 10.9312 49.9043 10.6615C49.6428 10.3905 49.512 10.0178 49.512 9.54343ZM50.132 9.5231C50.132 9.86057 50.2099 10.1167 50.3658 10.2915C50.5217 10.465 50.7195 10.5518 50.9594 10.5518C51.1993 10.5518 51.3958 10.4657 51.5489 10.2936C51.7034 10.1201 51.7807 9.86057 51.7807 9.51497C51.7807 9.17344 51.7055 8.91865 51.555 8.7506C51.406 8.58254 51.2074 8.49852 50.9594 8.49852C50.7114 8.49852 50.5115 8.5839 50.3597 8.75466C50.2079 8.92407 50.132 9.18022 50.132 9.5231ZM50.5874 7.86425L50.8679 7.25641H51.5083L50.9492 7.86425H50.5874ZM52.9069 9.52717V8.03501H53.5066V9.02097L54.1755 8.45989V8.95186L53.5066 9.51091V10.5131H55.0049V11.0153H52.9069V10.011L52.5918 10.2732V9.79145L52.9069 9.52717Z" fill="white"></path>
    <path d="M19.159 15.4046V12.1676H20.1372L20.7246 14.3757L21.3053 12.1676H22.2857V15.4046H21.6785V12.8565L21.0359 15.4046H20.4066L19.7663 12.8565V15.4046H19.159ZM22.9349 15.4046V12.1676H25.3351V12.7152H23.5885V13.4328H25.2136V13.9782H23.5885V14.8592H25.3969V15.4046H22.9349ZM28.0223 14.2145L28.6561 14.4154C28.5589 14.7687 28.397 15.0315 28.1703 15.2037C27.945 15.3745 27.6587 15.4598 27.3113 15.4598C26.8815 15.4598 26.5282 15.3134 26.2514 15.0204C25.9747 14.726 25.8363 14.3241 25.8363 13.8148C25.8363 13.276 25.9754 12.858 26.2536 12.5606C26.5319 12.2618 26.8977 12.1124 27.3511 12.1124C27.7471 12.1124 28.0687 12.2294 28.316 12.4635C28.4632 12.6018 28.5736 12.8006 28.6472 13.0596L28.0003 13.2142C27.962 13.0464 27.8818 12.9139 27.7596 12.8167C27.6389 12.7196 27.4917 12.671 27.318 12.671C27.078 12.671 26.883 12.7571 26.7328 12.9294C26.5841 13.1016 26.5098 13.3805 26.5098 13.7662C26.5098 14.1755 26.5834 14.4669 26.7306 14.6406C26.8778 14.8143 27.0692 14.9012 27.3047 14.9012C27.4784 14.9012 27.6278 14.846 27.7529 14.7356C27.8781 14.6252 27.9679 14.4515 28.0223 14.2145ZM29.2213 15.4046V12.1676H29.8749V13.4416H31.1556V12.1676H31.8092V15.4046H31.1556V13.9892H29.8749V15.4046H29.2213ZM35.4062 15.4046H34.6952L34.4126 14.6693H33.1186L32.8514 15.4046H32.1581L33.4189 12.1676H34.11L35.4062 15.4046ZM34.2028 14.1239L33.7568 12.9227L33.3196 14.1239H34.2028ZM35.7617 15.4046V12.1676H36.3976L37.7225 14.3293V12.1676H38.3297V15.4046H37.6739L36.3689 13.2937V15.4046H35.7617ZM39.0032 15.4046V12.1676H39.6568V15.4046H39.0032ZM42.3529 14.2145L42.9866 14.4154C42.8894 14.7687 42.7275 15.0315 42.5008 15.2037C42.2756 15.3745 41.9893 15.4598 41.6419 15.4598C41.212 15.4598 40.8587 15.3134 40.582 15.0204C40.3052 14.726 40.1669 14.3241 40.1669 13.8148C40.1669 13.276 40.306 12.858 40.5842 12.5606C40.8624 12.2618 41.2282 12.1124 41.6816 12.1124C42.0776 12.1124 42.3992 12.2294 42.6465 12.4635C42.7937 12.6018 42.9042 12.8006 42.9778 13.0596L42.3308 13.2142C42.2925 13.0464 42.2123 12.9139 42.0901 12.8167C41.9694 12.7196 41.8222 12.671 41.6485 12.671C41.4085 12.671 41.2135 12.7571 41.0633 12.9294C40.9147 13.1016 40.8403 13.3805 40.8403 13.7662C40.8403 14.1755 40.9139 14.4669 41.0611 14.6406C41.2083 14.8143 41.3997 14.9012 41.6352 14.9012C41.8089 14.9012 41.9584 14.846 42.0835 14.7356C42.2086 14.6252 42.2984 14.4515 42.3529 14.2145ZM43.2692 15.4046V14.8151L44.9695 12.7152H43.4613V12.1676H45.8306V12.6754L44.0575 14.8592H45.8991V15.4046H43.2692ZM46.3208 15.4046V12.1676H46.9567L48.2816 14.3293V12.1676H48.8888V15.4046H48.233L46.928 13.2937V15.4046H46.3208ZM50.4323 15.4046V14.0422L49.2465 12.1676H50.0127L50.7745 13.4483L51.5209 12.1676H52.2738L51.0837 14.0467V15.4046H50.4323ZM54.6696 14.2145L55.3033 14.4154C55.2062 14.7687 55.0443 15.0315 54.8176 15.2037C54.5923 15.3745 54.306 15.4598 53.9586 15.4598C53.5288 15.4598 53.1755 15.3134 52.8987 15.0204C52.622 14.726 52.4836 14.3241 52.4836 13.8148C52.4836 13.276 52.6227 12.858 52.9009 12.5606C53.1792 12.2618 53.545 12.1124 53.9984 12.1124C54.3943 12.1124 54.716 12.2294 54.9633 12.4635C55.1105 12.6018 55.2209 12.8006 55.2945 13.0596L54.6475 13.2142C54.6093 13.0464 54.529 12.9139 54.4069 12.8167C54.2861 12.7196 54.1389 12.671 53.9652 12.671C53.7253 12.671 53.5302 12.7571 53.3801 12.9294C53.2314 13.1016 53.1571 13.3805 53.1571 13.7662C53.1571 14.1755 53.2307 14.4669 53.3779 14.6406C53.5251 14.8143 53.7165 14.9012 53.952 14.9012C54.1257 14.9012 54.2751 14.846 54.4002 14.7356C54.5254 14.6252 54.6151 14.4515 54.6696 14.2145ZM55.8686 15.4046V12.1676H56.5222V13.4416H57.8029V12.1676H58.4565V15.4046H57.8029V13.9892H56.5222V15.4046H55.8686Z" fill="white"></path>
    <path d="M25.8581 68.4704C25.6706 67.1441 25.5818 66.479 25.4121 65.1527C25.6982 65.1883 25.8403 65.206 26.1264 65.2416C26.229 66.1494 26.2823 66.6053 26.3948 67.5132C26.7539 66.6586 26.9315 66.2303 27.2808 65.3738C27.6143 65.4093 27.78 65.4271 28.1135 65.4606C28.2654 66.3863 28.3444 66.8481 28.5081 67.7718C28.812 66.8915 28.96 66.4514 29.254 65.5692C29.5362 65.5948 29.6763 65.6067 29.9585 65.6304C29.5145 66.8935 29.2856 67.5231 28.8219 68.7823C28.516 68.7546 28.3621 68.7388 28.0563 68.7092C27.8668 67.7165 27.7741 67.2211 27.5985 66.2284C27.2196 67.1619 27.0282 67.6297 26.6375 68.5612C26.3257 68.5257 26.1679 68.5079 25.8561 68.4724L25.8581 68.4704Z" fill="white"></path>
    <path d="M30.9492 68.954C31.042 67.6613 31.0893 67.0159 31.1821 65.7232C32.2121 65.7982 32.7271 65.8278 33.7591 65.8771C33.7493 66.0962 33.7433 66.2047 33.7335 66.4238C32.9797 66.3883 32.6028 66.3666 31.849 66.3172C31.8293 66.6034 31.8214 66.7475 31.8017 67.0337C32.5081 67.0791 32.8613 67.1008 33.5677 67.1343C33.5578 67.3514 33.5519 67.4619 33.5401 67.679C32.8297 67.6435 32.4745 67.6238 31.7661 67.5764C31.7425 67.9277 31.7306 68.1034 31.7089 68.4567C32.5041 68.508 32.9027 68.5317 33.6999 68.5692L33.6743 69.1139C32.585 69.0626 32.0404 69.029 30.9512 68.952L30.9492 68.954Z" fill="white"></path>
    <path d="M34.0547 69.1356C34.1119 67.8507 34.1396 67.2093 34.1948 65.9264C34.475 65.9383 34.6171 65.9442 34.8973 65.9541C34.8578 67.0198 34.8381 67.5527 34.7966 68.6185C35.5129 68.6461 35.8701 68.656 36.5864 68.6718C36.5824 68.8908 36.5785 68.9994 36.5745 69.2165C35.5662 69.1948 35.0611 69.179 34.0527 69.1336L34.0547 69.1356Z" fill="white"></path>
    <path d="M36.904 65.9837C37.4604 65.9935 37.7386 65.9975 38.2951 66.0014C38.5714 66.0014 38.7766 66.0133 38.9108 66.035C39.0469 66.0567 39.1673 66.1001 39.2738 66.1672C39.3804 66.2343 39.4712 66.3251 39.5422 66.4376C39.6152 66.5501 39.6507 66.6764 39.6527 66.8165C39.6527 66.9685 39.6113 67.1086 39.5225 67.235C39.4337 67.3613 39.3133 67.458 39.1614 67.5211C39.3764 67.5784 39.5422 67.6751 39.6586 67.8132C39.775 67.9514 39.8342 68.1132 39.8362 68.3007C39.8362 68.4487 39.8007 68.5909 39.7257 68.731C39.6507 68.8711 39.5481 68.9836 39.4179 69.0665C39.2876 69.1494 39.1258 69.2027 38.9325 69.2204C38.8121 69.2323 38.5201 69.2402 38.0603 69.2382C37.5729 69.2343 37.3282 69.2303 36.8408 69.2224C36.8645 67.9277 36.8763 67.2784 36.902 65.9837H36.904ZM37.6005 66.5343C37.5966 66.8343 37.5946 66.9843 37.5907 67.2823C37.7761 67.2843 37.8709 67.2863 38.0563 67.2863C38.3326 67.2883 38.5062 67.2863 38.5733 67.2784C38.6957 67.2646 38.7904 67.2271 38.8594 67.1619C38.9285 67.0988 38.964 67.0139 38.964 66.9093C38.964 66.8087 38.9344 66.7277 38.8752 66.6646C38.816 66.6014 38.7272 66.5639 38.6088 66.5501C38.5398 66.5422 38.3385 66.5383 38.005 66.5363C37.8432 66.5363 37.7623 66.5343 37.6005 66.5323V66.5343ZM37.5847 67.8211C37.5808 68.1685 37.5788 68.3402 37.5749 68.6876C37.8413 68.6915 37.9754 68.6915 38.2418 68.6935C38.5003 68.6935 38.6661 68.6876 38.7351 68.6757C38.8397 68.658 38.9285 68.6145 38.9956 68.5474C39.0627 68.4784 39.0962 68.3876 39.0962 68.2731C39.0962 68.1764 39.0706 68.0935 39.0193 68.0264C38.968 67.9593 38.893 67.9099 38.7963 67.8784C38.6996 67.8468 38.4885 67.831 38.1629 67.829C37.932 67.829 37.8176 67.8271 37.5867 67.8231L37.5847 67.8211Z" fill="white"></path>
    <path d="M40.2269 69.2343C40.2112 67.9494 40.2052 67.306 40.1895 66.0212C40.4697 66.0172 40.6117 66.0153 40.8919 66.0113C40.9117 67.0771 40.9215 67.6119 40.9413 68.6777C41.6575 68.6639 42.0147 68.656 42.731 68.6303C42.7389 68.8494 42.7428 68.958 42.7507 69.1751C41.7424 69.2106 41.2372 69.2204 40.2289 69.2323L40.2269 69.2343Z" fill="white"></path>
    <path d="M46.2437 69.0014C45.9299 69.0231 45.7721 69.031 45.4583 69.0507C45.3162 68.7645 45.2452 68.6205 45.1051 68.3343C44.5368 68.3659 44.2527 68.3797 43.6824 68.4053C43.5778 68.7053 43.5245 68.8533 43.418 69.1533C43.1102 69.1652 42.9582 69.1711 42.6504 69.181C43.1654 67.8665 43.414 67.2093 43.8955 65.8889C44.1915 65.8751 44.3415 65.8672 44.6374 65.8514C45.263 67.1165 45.5846 67.7461 46.2417 69.0014H46.2437ZM44.8446 67.8014C44.6236 67.3317 44.5151 67.0968 44.2981 66.6251C44.1323 67.1146 44.0494 67.3593 43.8797 67.8488C44.2665 67.831 44.4599 67.8211 44.8446 67.8014ZM46.0246 69.0152C45.995 69.0369 45.9694 69.0645 45.9457 69.0922C45.922 69.1218 45.9023 69.1514 45.8865 69.1829C45.8707 69.2145 45.8589 69.2461 45.851 69.2797C45.8431 69.3112 45.8392 69.3428 45.8411 69.3724C45.8451 69.4218 45.8609 69.4612 45.8924 69.4928C45.924 69.5244 45.9714 69.5382 46.0385 69.5343C46.0681 69.5343 46.1016 69.5264 46.1371 69.5145C46.1726 69.5027 46.2082 69.4908 46.2397 69.481C46.2496 69.629 46.2535 69.702 46.2634 69.85C46.1292 69.9171 46.0069 69.9546 45.8984 69.9625C45.8056 69.9685 45.7267 69.9625 45.6576 69.9448C45.5886 69.927 45.5313 69.8994 45.484 69.8639C45.4366 69.8283 45.4011 69.7849 45.3754 69.7356C45.3498 69.6862 45.336 69.6329 45.334 69.5757C45.3301 69.4908 45.3518 69.4 45.405 69.3033C45.4563 69.2066 45.5274 69.1218 45.6201 69.0448C45.7839 69.0349 45.8648 69.029 46.0286 69.0191L46.0246 69.0152Z" fill="white"></path>
    <path d="M47.9427 67.681C47.925 67.4639 47.9151 67.3553 47.8973 67.1363C48.509 67.085 48.8169 67.0593 49.4286 67.0001C49.4779 67.5132 49.5035 67.7698 49.5529 68.2849C49.4148 68.431 49.2076 68.5691 48.9313 68.6954C48.6531 68.8218 48.367 68.8968 48.0729 68.9224C47.698 68.954 47.3665 68.9086 47.0784 68.7862C46.7903 68.6658 46.5674 68.4764 46.4115 68.2218C46.2536 67.9672 46.1668 67.6849 46.1471 67.3751C46.1254 67.0376 46.1826 66.7337 46.3168 66.4613C46.4509 66.1889 46.6601 65.9738 46.9423 65.812C47.1574 65.6896 47.4297 65.6126 47.7612 65.587C48.1913 65.5514 48.5347 65.6047 48.7932 65.7508C49.0517 65.8968 49.2293 66.1139 49.3279 66.4021C49.0517 66.4771 48.9135 66.5146 48.6373 66.5876C48.5742 66.4337 48.4696 66.3172 48.3255 66.2363C48.1815 66.1573 48.0098 66.1258 47.8066 66.1416C47.4987 66.1672 47.2619 66.2758 47.0922 66.4712C46.9245 66.6646 46.8515 66.9409 46.8772 67.2961C46.9048 67.679 47.0192 67.9613 47.2205 68.1389C47.4218 68.3165 47.6763 68.3935 47.9802 68.3678C48.1302 68.356 48.2801 68.3165 48.4262 68.2494C48.5722 68.1823 48.6965 68.1073 48.7971 68.0205C48.7833 67.8567 48.7754 67.7757 48.7596 67.6119C48.4321 67.6415 48.2683 67.6553 47.9427 67.683V67.681Z" fill="white"></path>
    <path d="M49.6846 65.4646C49.9648 65.437 50.1049 65.4212 50.3851 65.3916C50.4601 66.0903 50.4975 66.4376 50.5706 67.1363C50.6002 67.4126 50.6278 67.5922 50.6554 67.6711C50.6988 67.7994 50.7837 67.8981 50.908 67.9652C51.0323 68.0323 51.1941 68.054 51.3954 68.0323C51.5986 68.0086 51.7486 67.9534 51.8413 67.8665C51.936 67.7797 51.9873 67.679 51.9933 67.5665C52.0012 67.454 51.9893 67.2705 51.9597 67.0159C51.8749 66.3034 51.8315 65.9482 51.7466 65.2376C52.0268 65.2041 52.1649 65.1863 52.4451 65.1508C52.53 65.8258 52.5734 66.1633 52.6582 66.8383C52.7076 67.2251 52.7214 67.4994 52.7036 67.6632C52.6859 67.8271 52.6306 67.9711 52.5399 68.0935C52.4491 68.2159 52.3208 68.3205 52.1531 68.4073C51.9854 68.4941 51.7604 68.5534 51.4783 68.5849C51.1369 68.6244 50.8744 68.6165 50.6909 68.5632C50.5074 68.5119 50.3594 68.433 50.245 68.3303C50.1305 68.2277 50.0516 68.1152 50.0082 67.9928C49.9431 67.8132 49.8918 67.5429 49.8562 67.1817C49.7872 66.4949 49.7536 66.1495 49.6846 65.4626V65.4646Z" fill="white"></path>
  </g>
  <path d="M99.2607 22V21.67L106.361 9.86H99.7607V7.6H110.531V7.94L103.471 19.73H110.361V22H99.2607ZM117.432 22.3C116.339 22.3 115.379 22.0633 114.552 21.59C113.726 21.1167 113.079 20.46 112.612 19.62C112.152 18.78 111.922 17.8133 111.922 16.72C111.922 15.54 112.149 14.5167 112.602 13.65C113.056 12.7767 113.686 12.1 114.492 11.62C115.299 11.14 116.232 10.9 117.292 10.9C118.412 10.9 119.362 11.1633 120.142 11.69C120.929 12.21 121.512 12.9467 121.892 13.9C122.272 14.8533 122.416 15.9767 122.322 17.27H119.932V16.39C119.926 15.2167 119.719 14.36 119.312 13.82C118.906 13.28 118.266 13.01 117.392 13.01C116.406 13.01 115.672 13.3167 115.192 13.93C114.712 14.5367 114.472 15.4267 114.472 16.6C114.472 17.6933 114.712 18.54 115.192 19.14C115.672 19.74 116.372 20.04 117.292 20.04C117.886 20.04 118.396 19.91 118.822 19.65C119.256 19.3833 119.589 19 119.822 18.5L122.202 19.22C121.789 20.1933 121.149 20.95 120.282 21.49C119.422 22.03 118.472 22.3 117.432 22.3ZM113.712 17.27V15.45H121.142V17.27H113.712ZM128.324 22.3C126.99 22.3 125.907 22 125.074 21.4C124.24 20.8 123.734 19.9567 123.554 18.87L126.014 18.49C126.14 19.0233 126.42 19.4433 126.854 19.75C127.287 20.0567 127.834 20.21 128.494 20.21C129.074 20.21 129.52 20.0967 129.834 19.87C130.154 19.6367 130.314 19.32 130.314 18.92C130.314 18.6733 130.254 18.4767 130.134 18.33C130.02 18.1767 129.767 18.03 129.374 17.89C128.98 17.75 128.377 17.5733 127.564 17.36C126.657 17.12 125.937 16.8633 125.404 16.59C124.87 16.31 124.487 15.98 124.254 15.6C124.02 15.22 123.904 14.76 123.904 14.22C123.904 13.5467 124.08 12.96 124.434 12.46C124.787 11.96 125.28 11.5767 125.914 11.31C126.547 11.0367 127.294 10.9 128.154 10.9C128.994 10.9 129.737 11.03 130.384 11.29C131.037 11.55 131.564 11.92 131.964 12.4C132.364 12.88 132.61 13.4433 132.704 14.09L130.244 14.53C130.184 14.07 129.974 13.7067 129.614 13.44C129.26 13.1733 128.787 13.0233 128.194 12.99C127.627 12.9567 127.17 13.0433 126.824 13.25C126.477 13.45 126.304 13.7333 126.304 14.1C126.304 14.3067 126.374 14.4833 126.514 14.63C126.654 14.7767 126.934 14.9233 127.354 15.07C127.78 15.2167 128.414 15.3967 129.254 15.61C130.114 15.83 130.8 16.0833 131.314 16.37C131.834 16.65 132.207 16.9867 132.434 17.38C132.667 17.7733 132.784 18.25 132.784 18.81C132.784 19.8967 132.387 20.75 131.594 21.37C130.807 21.99 129.717 22.3 128.324 22.3ZM139.764 22.3C138.711 22.3 137.827 22.05 137.114 21.55C136.401 21.05 135.864 20.37 135.504 19.51C135.144 18.6433 134.964 17.6733 134.964 16.6C134.964 15.5133 135.144 14.54 135.504 13.68C135.864 12.82 136.391 12.1433 137.084 11.65C137.784 11.15 138.647 10.9 139.674 10.9C140.694 10.9 141.577 11.15 142.324 11.65C143.077 12.1433 143.661 12.82 144.074 13.68C144.487 14.5333 144.694 15.5067 144.694 16.6C144.694 17.68 144.491 18.65 144.084 19.51C143.677 20.37 143.104 21.05 142.364 21.55C141.624 22.05 140.757 22.3 139.764 22.3ZM134.554 26.8V11.2H136.684V18.78H136.984V26.8H134.554ZM139.394 20.14C140.021 20.14 140.537 19.9833 140.944 19.67C141.351 19.3567 141.651 18.9333 141.844 18.4C142.044 17.86 142.144 17.26 142.144 16.6C142.144 15.9467 142.044 15.3533 141.844 14.82C141.644 14.28 141.334 13.8533 140.914 13.54C140.494 13.22 139.961 13.06 139.314 13.06C138.701 13.06 138.201 13.21 137.814 13.51C137.427 13.8033 137.141 14.2167 136.954 14.75C136.774 15.2767 136.684 15.8933 136.684 16.6C136.684 17.3 136.774 17.9167 136.954 18.45C137.141 18.9833 137.431 19.4 137.824 19.7C138.224 19.9933 138.747 20.14 139.394 20.14ZM152.218 9.65H150.388L151.928 5.95H153.758L152.218 9.65ZM151.268 22.3C150.188 22.3 149.245 22.0567 148.438 21.57C147.632 21.0833 147.005 20.4133 146.558 19.56C146.118 18.7 145.898 17.7133 145.898 16.6C145.898 15.4667 146.125 14.4733 146.578 13.62C147.032 12.7667 147.662 12.1 148.468 11.62C149.275 11.14 150.208 10.9 151.268 10.9C152.355 10.9 153.302 11.1433 154.108 11.63C154.915 12.1167 155.542 12.79 155.988 13.65C156.435 14.5033 156.658 15.4867 156.658 16.6C156.658 17.72 156.432 18.71 155.978 19.57C155.532 20.4233 154.905 21.0933 154.098 21.58C153.292 22.06 152.348 22.3 151.268 22.3ZM151.268 20.04C152.228 20.04 152.942 19.72 153.408 19.08C153.875 18.44 154.108 17.6133 154.108 16.6C154.108 15.5533 153.872 14.72 153.398 14.1C152.925 13.4733 152.215 13.16 151.268 13.16C150.622 13.16 150.088 13.3067 149.668 13.6C149.255 13.8867 148.948 14.29 148.748 14.81C148.548 15.3233 148.448 15.92 148.448 16.6C148.448 17.6467 148.685 18.4833 149.158 19.11C149.638 19.73 150.342 20.04 151.268 20.04ZM157.612 17.93V15.32L164.482 11.37V13.99L157.612 17.93ZM159.842 22V7.3H162.252V22H159.842ZM174.964 22.3C173.911 22.3 172.961 22.1167 172.114 21.75C171.274 21.3833 170.581 20.86 170.034 20.18C169.494 19.4933 169.151 18.68 169.004 17.74L171.504 17.36C171.718 18.2133 172.154 18.8733 172.814 19.34C173.481 19.8067 174.248 20.04 175.114 20.04C175.628 20.04 176.111 19.96 176.564 19.8C177.018 19.64 177.384 19.4067 177.664 19.1C177.951 18.7933 178.094 18.4167 178.094 17.97C178.094 17.77 178.061 17.5867 177.994 17.42C177.928 17.2467 177.828 17.0933 177.694 16.96C177.568 16.8267 177.401 16.7067 177.194 16.6C176.994 16.4867 176.761 16.39 176.494 16.31L172.774 15.21C172.454 15.1167 172.108 14.9933 171.734 14.84C171.368 14.68 171.018 14.4633 170.684 14.19C170.358 13.91 170.088 13.5567 169.874 13.13C169.668 12.6967 169.564 12.1633 169.564 11.53C169.564 10.6033 169.798 9.82667 170.264 9.2C170.738 8.56667 171.371 8.09333 172.164 7.78C172.964 7.46667 173.851 7.31333 174.824 7.32C175.811 7.32667 176.691 7.49667 177.464 7.83C178.238 8.15667 178.884 8.63333 179.404 9.26C179.924 9.88667 180.291 10.6433 180.504 11.53L177.914 11.98C177.808 11.4733 177.601 11.0433 177.294 10.69C176.994 10.33 176.624 10.0567 176.184 9.87C175.751 9.68333 175.288 9.58333 174.794 9.57C174.314 9.56333 173.868 9.63667 173.454 9.79C173.048 9.93667 172.718 10.15 172.464 10.43C172.218 10.71 172.094 11.0367 172.094 11.41C172.094 11.7633 172.201 12.0533 172.414 12.28C172.628 12.5 172.891 12.6767 173.204 12.81C173.524 12.9367 173.848 13.0433 174.174 13.13L176.754 13.85C177.108 13.9433 177.504 14.07 177.944 14.23C178.384 14.39 178.808 14.6133 179.214 14.9C179.621 15.1867 179.954 15.5633 180.214 16.03C180.481 16.4967 180.614 17.09 180.614 17.81C180.614 18.5567 180.458 19.2133 180.144 19.78C179.838 20.34 179.421 20.8067 178.894 21.18C178.368 21.5533 177.764 21.8333 177.084 22.02C176.411 22.2067 175.704 22.3 174.964 22.3ZM181.379 22V21.67L187.099 13.31H181.959V11.2H190.849V11.54L185.149 19.89H190.609V22H181.379ZM192.623 22L192.643 7.6H195.083V16.4L199.033 11.2H202.043L197.853 16.6L202.403 22H199.213L195.083 16.8V22H192.623ZM208.529 9.65H206.699L208.239 5.95H210.069L208.529 9.65ZM207.579 22.3C206.499 22.3 205.556 22.0567 204.749 21.57C203.943 21.0833 203.316 20.4133 202.869 19.56C202.429 18.7 202.209 17.7133 202.209 16.6C202.209 15.4667 202.436 14.4733 202.889 13.62C203.343 12.7667 203.973 12.1 204.779 11.62C205.586 11.14 206.519 10.9 207.579 10.9C208.666 10.9 209.613 11.1433 210.419 11.63C211.226 12.1167 211.853 12.79 212.299 13.65C212.746 14.5033 212.969 15.4867 212.969 16.6C212.969 17.72 212.743 18.71 212.289 19.57C211.843 20.4233 211.216 21.0933 210.409 21.58C209.603 22.06 208.659 22.3 207.579 22.3ZM207.579 20.04C208.539 20.04 209.253 19.72 209.719 19.08C210.186 18.44 210.419 17.6133 210.419 16.6C210.419 15.5533 210.183 14.72 209.709 14.1C209.236 13.4733 208.526 13.16 207.579 13.16C206.933 13.16 206.399 13.3067 205.979 13.6C205.566 13.8867 205.259 14.29 205.059 14.81C204.859 15.3233 204.759 15.92 204.759 16.6C204.759 17.6467 204.996 18.4833 205.469 19.11C205.949 19.73 206.653 20.04 207.579 20.04ZM213.922 17.93V15.32L220.792 11.37V13.99L213.922 17.93ZM216.152 22V7.3H218.562V22H216.152ZM99.6607 50V35.6H101.831L106.811 45.8L111.791 35.6H113.961V50H111.711V40.77L107.291 50H106.331L101.921 40.77V50H99.6607ZM121.28 50.3C120.187 50.3 119.227 50.0633 118.4 49.59C117.573 49.1167 116.927 48.46 116.46 47.62C116 46.78 115.77 45.8133 115.77 44.72C115.77 43.54 115.997 42.5167 116.45 41.65C116.903 40.7767 117.533 40.1 118.34 39.62C119.147 39.14 120.08 38.9 121.14 38.9C122.26 38.9 123.21 39.1633 123.99 39.69C124.777 40.21 125.36 40.9467 125.74 41.9C126.12 42.8533 126.263 43.9767 126.17 45.27H123.78V44.39C123.773 43.2167 123.567 42.36 123.16 41.82C122.753 41.28 122.113 41.01 121.24 41.01C120.253 41.01 119.52 41.3167 119.04 41.93C118.56 42.5367 118.32 43.4267 118.32 44.6C118.32 45.6933 118.56 46.54 119.04 47.14C119.52 47.74 120.22 48.04 121.14 48.04C121.733 48.04 122.243 47.91 122.67 47.65C123.103 47.3833 123.437 47 123.67 46.5L126.05 47.22C125.637 48.1933 124.997 48.95 124.13 49.49C123.27 50.03 122.32 50.3 121.28 50.3ZM117.56 45.27V43.45H124.99V45.27H117.56ZM132.691 50.3C131.578 50.3 130.628 50.0533 129.841 49.56C129.055 49.06 128.451 48.38 128.031 47.52C127.618 46.66 127.408 45.6867 127.401 44.6C127.408 43.4933 127.625 42.5133 128.051 41.66C128.485 40.8 129.098 40.1267 129.891 39.64C130.685 39.1467 131.628 38.9 132.721 38.9C133.948 38.9 134.985 39.21 135.831 39.83C136.685 40.4433 137.241 41.2833 137.501 42.35L135.101 43C134.915 42.42 134.605 41.97 134.171 41.65C133.738 41.3233 133.245 41.16 132.691 41.16C132.065 41.16 131.548 41.31 131.141 41.61C130.735 41.9033 130.435 42.31 130.241 42.83C130.048 43.35 129.951 43.94 129.951 44.6C129.951 45.6267 130.181 46.4567 130.641 47.09C131.101 47.7233 131.785 48.04 132.691 48.04C133.331 48.04 133.835 47.8933 134.201 47.6C134.575 47.3067 134.855 46.8833 135.041 46.33L137.501 46.88C137.168 47.98 136.585 48.8267 135.751 49.42C134.918 50.0067 133.898 50.3 132.691 50.3ZM146.575 50V44.8C146.575 44.46 146.552 44.0833 146.505 43.67C146.459 43.2567 146.349 42.86 146.175 42.48C146.009 42.0933 145.755 41.7767 145.415 41.53C145.082 41.2833 144.629 41.16 144.055 41.16C143.749 41.16 143.445 41.21 143.145 41.31C142.845 41.41 142.572 41.5833 142.325 41.83C142.085 42.07 141.892 42.4033 141.745 42.83C141.599 43.25 141.525 43.79 141.525 44.45L140.095 43.84C140.095 42.92 140.272 42.0867 140.625 41.34C140.985 40.5933 141.512 40 142.205 39.56C142.899 39.1133 143.752 38.89 144.765 38.89C145.565 38.89 146.225 39.0233 146.745 39.29C147.265 39.5567 147.679 39.8967 147.985 40.31C148.292 40.7233 148.519 41.1633 148.665 41.63C148.812 42.0967 148.905 42.54 148.945 42.96C148.992 43.3733 149.015 43.71 149.015 43.97V50H146.575ZM139.085 50V35.6H141.235V43.18H141.525V50H139.085ZM154.245 50.3C153.465 50.3 152.805 50.1533 152.265 49.86C151.725 49.56 151.315 49.1633 151.035 48.67C150.761 48.1767 150.625 47.6333 150.625 47.04C150.625 46.52 150.711 46.0533 150.885 45.64C151.058 45.22 151.325 44.86 151.685 44.56C152.045 44.2533 152.511 44.0033 153.085 43.81C153.518 43.67 154.025 43.5433 154.605 43.43C155.191 43.3167 155.825 43.2133 156.505 43.12C157.191 43.02 157.908 42.9133 158.655 42.8L157.795 43.29C157.801 42.5433 157.635 41.9933 157.295 41.64C156.955 41.2867 156.381 41.11 155.575 41.11C155.088 41.11 154.618 41.2233 154.165 41.45C153.711 41.6767 153.395 42.0667 153.215 42.62L151.015 41.93C151.281 41.0167 151.788 40.2833 152.535 39.73C153.288 39.1767 154.301 38.9 155.575 38.9C156.535 38.9 157.378 39.0567 158.105 39.37C158.838 39.6833 159.381 40.1967 159.735 40.91C159.928 41.29 160.045 41.68 160.085 42.08C160.125 42.4733 160.145 42.9033 160.145 43.37V50H158.035V47.66L158.385 48.04C157.898 48.82 157.328 49.3933 156.675 49.76C156.028 50.12 155.218 50.3 154.245 50.3ZM154.725 48.38C155.271 48.38 155.738 48.2833 156.125 48.09C156.511 47.8967 156.818 47.66 157.045 47.38C157.278 47.1 157.435 46.8367 157.515 46.59C157.641 46.2833 157.711 45.9333 157.725 45.54C157.745 45.14 157.755 44.8167 157.755 44.57L158.495 44.79C157.768 44.9033 157.145 45.0033 156.625 45.09C156.105 45.1767 155.658 45.26 155.285 45.34C154.911 45.4133 154.581 45.4967 154.295 45.59C154.015 45.69 153.778 45.8067 153.585 45.94C153.391 46.0733 153.241 46.2267 153.135 46.4C153.035 46.5733 152.985 46.7767 152.985 47.01C152.985 47.2767 153.051 47.5133 153.185 47.72C153.318 47.92 153.511 48.08 153.765 48.2C154.025 48.32 154.345 48.38 154.725 48.38ZM169.818 50V44.8C169.818 44.46 169.795 44.0833 169.748 43.67C169.702 43.2567 169.592 42.86 169.418 42.48C169.252 42.0933 168.998 41.7767 168.658 41.53C168.325 41.2833 167.872 41.16 167.298 41.16C166.992 41.16 166.688 41.21 166.388 41.31C166.088 41.41 165.815 41.5833 165.568 41.83C165.328 42.07 165.135 42.4033 164.988 42.83C164.842 43.25 164.768 43.79 164.768 44.45L163.338 43.84C163.338 42.92 163.515 42.0867 163.868 41.34C164.228 40.5933 164.755 40 165.448 39.56C166.142 39.1133 166.995 38.89 168.008 38.89C168.808 38.89 169.468 39.0233 169.988 39.29C170.508 39.5567 170.922 39.8967 171.228 40.31C171.535 40.7233 171.762 41.1633 171.908 41.63C172.055 42.0967 172.148 42.54 172.188 42.96C172.235 43.3733 172.258 43.71 172.258 43.97V50H169.818ZM162.328 50V39.2H164.478V42.55H164.768V50H162.328ZM174.668 37.56V35.35H177.078V37.56H174.668ZM174.668 50V39.2H177.078V50H174.668ZM184.363 50.3C183.25 50.3 182.3 50.0533 181.513 49.56C180.727 49.06 180.123 48.38 179.703 47.52C179.29 46.66 179.08 45.6867 179.073 44.6C179.08 43.4933 179.297 42.5133 179.723 41.66C180.157 40.8 180.77 40.1267 181.563 39.64C182.357 39.1467 183.3 38.9 184.393 38.9C185.62 38.9 186.657 39.21 187.503 39.83C188.357 40.4433 188.913 41.2833 189.173 42.35L186.773 43C186.587 42.42 186.277 41.97 185.843 41.65C185.41 41.3233 184.917 41.16 184.363 41.16C183.737 41.16 183.22 41.31 182.813 41.61C182.407 41.9033 182.107 42.31 181.913 42.83C181.72 43.35 181.623 43.94 181.623 44.6C181.623 45.6267 181.853 46.4567 182.313 47.09C182.773 47.7233 183.457 48.04 184.363 48.04C185.003 48.04 185.507 47.8933 185.873 47.6C186.247 47.3067 186.527 46.8833 186.713 46.33L189.173 46.88C188.84 47.98 188.257 48.8267 187.423 49.42C186.59 50.0067 185.57 50.3 184.363 50.3ZM189.777 50V49.67L195.497 41.31H190.357V39.2H199.247V39.54L193.547 47.89H199.007V50H189.777ZM208.511 50V44.8C208.511 44.46 208.488 44.0833 208.441 43.67C208.395 43.2567 208.285 42.86 208.111 42.48C207.945 42.0933 207.691 41.7767 207.351 41.53C207.018 41.2833 206.565 41.16 205.991 41.16C205.685 41.16 205.381 41.21 205.081 41.31C204.781 41.41 204.508 41.5833 204.261 41.83C204.021 42.07 203.828 42.4033 203.681 42.83C203.535 43.25 203.461 43.79 203.461 44.45L202.031 43.84C202.031 42.92 202.208 42.0867 202.561 41.34C202.921 40.5933 203.448 40 204.141 39.56C204.835 39.1133 205.688 38.89 206.701 38.89C207.501 38.89 208.161 39.0233 208.681 39.29C209.201 39.5567 209.615 39.8967 209.921 40.31C210.228 40.7233 210.455 41.1633 210.601 41.63C210.748 42.0967 210.841 42.54 210.881 42.96C210.928 43.3733 210.951 43.71 210.951 43.97V50H208.511ZM201.021 50V39.2H203.171V42.55H203.461V50H201.021ZM214.19 54.8L216.27 49.09L216.31 50.77L211.6 39.2H214.11L217.45 47.76H216.81L220.06 39.2H222.47L216.45 54.8H214.19ZM227.861 50.3C226.748 50.3 225.798 50.0533 225.011 49.56C224.224 49.06 223.621 48.38 223.201 47.52C222.788 46.66 222.578 45.6867 222.571 44.6C222.578 43.4933 222.794 42.5133 223.221 41.66C223.654 40.8 224.268 40.1267 225.061 39.64C225.854 39.1467 226.798 38.9 227.891 38.9C229.118 38.9 230.154 39.21 231.001 39.83C231.854 40.4433 232.411 41.2833 232.671 42.35L230.271 43C230.084 42.42 229.774 41.97 229.341 41.65C228.908 41.3233 228.414 41.16 227.861 41.16C227.234 41.16 226.718 41.31 226.311 41.61C225.904 41.9033 225.604 42.31 225.411 42.83C225.218 43.35 225.121 43.94 225.121 44.6C225.121 45.6267 225.351 46.4567 225.811 47.09C226.271 47.7233 226.954 48.04 227.861 48.04C228.501 48.04 229.004 47.8933 229.371 47.6C229.744 47.3067 230.024 46.8833 230.211 46.33L232.671 46.88C232.338 47.98 231.754 48.8267 230.921 49.42C230.088 50.0067 229.068 50.3 227.861 50.3ZM241.745 50V44.8C241.745 44.46 241.721 44.0833 241.675 43.67C241.628 43.2567 241.518 42.86 241.345 42.48C241.178 42.0933 240.925 41.7767 240.585 41.53C240.251 41.2833 239.798 41.16 239.225 41.16C238.918 41.16 238.615 41.21 238.315 41.31C238.015 41.41 237.741 41.5833 237.495 41.83C237.255 42.07 237.061 42.4033 236.915 42.83C236.768 43.25 236.695 43.79 236.695 44.45L235.265 43.84C235.265 42.92 235.441 42.0867 235.795 41.34C236.155 40.5933 236.681 40 237.375 39.56C238.068 39.1133 238.921 38.89 239.935 38.89C240.735 38.89 241.395 39.0233 241.915 39.29C242.435 39.5567 242.848 39.8967 243.155 40.31C243.461 40.7233 243.688 41.1633 243.835 41.63C243.981 42.0967 244.075 42.54 244.115 42.96C244.161 43.3733 244.185 43.71 244.185 43.97V50H241.745ZM234.255 50V35.6H236.405V43.18H236.695V50H234.255ZM101.961 78L98.6607 67.18L101.021 67.2L103.131 74.13L105.271 67.2H107.301L109.431 74.13L111.551 67.2H113.911L110.611 78H108.731L106.281 70.57L103.841 78H101.961ZM118.919 78V63.6H128.219V65.86H121.329V69.41H127.019V71.67H121.329V75.74H128.219V78H118.919ZM130.419 78V63.3H132.829V78H130.419ZM140.614 78.3C139.561 78.3 138.677 78.05 137.964 77.55C137.251 77.05 136.714 76.37 136.354 75.51C135.994 74.6433 135.814 73.6733 135.814 72.6C135.814 71.5133 135.994 70.54 136.354 69.68C136.714 68.82 137.241 68.1433 137.934 67.65C138.634 67.15 139.497 66.9 140.524 66.9C141.544 66.9 142.427 67.15 143.174 67.65C143.927 68.1433 144.511 68.82 144.924 69.68C145.337 70.5333 145.544 71.5067 145.544 72.6C145.544 73.68 145.341 74.65 144.934 75.51C144.527 76.37 143.954 77.05 143.214 77.55C142.474 78.05 141.607 78.3 140.614 78.3ZM135.404 78V63.6H137.834V70.42H137.534V78H135.404ZM140.244 76.14C140.871 76.14 141.387 75.9833 141.794 75.67C142.201 75.3567 142.501 74.9333 142.694 74.4C142.894 73.86 142.994 73.26 142.994 72.6C142.994 71.9467 142.894 71.3533 142.694 70.82C142.494 70.28 142.184 69.8533 141.764 69.54C141.344 69.22 140.811 69.06 140.164 69.06C139.551 69.06 139.051 69.21 138.664 69.51C138.277 69.8033 137.991 70.2167 137.804 70.75C137.624 71.2767 137.534 71.8933 137.534 72.6C137.534 73.3 137.624 73.9167 137.804 74.45C137.991 74.9833 138.281 75.4 138.674 75.7C139.074 75.9933 139.597 76.14 140.244 76.14ZM147.548 78V63.3H149.958V78H147.548ZM159.524 82.79C159.104 82.79 158.734 82.6867 158.414 82.48C158.094 82.2733 157.84 82.0033 157.654 81.67C157.474 81.3433 157.384 80.99 157.384 80.61C157.384 80.13 157.517 79.6467 157.784 79.16C158.057 78.68 158.42 78.2333 158.874 77.82C159.334 77.4067 159.85 77.0633 160.424 76.79L161.474 78C161.067 78.22 160.694 78.4733 160.354 78.76C160.02 79.0533 159.754 79.3467 159.554 79.64C159.36 79.9333 159.264 80.1933 159.264 80.42C159.264 80.5867 159.32 80.7267 159.434 80.84C159.547 80.9533 159.684 81.01 159.844 81.01C159.957 81.01 160.077 80.98 160.204 80.92C160.33 80.86 160.457 80.7733 160.584 80.66L161.444 81.79C161.21 82.11 160.92 82.3567 160.574 82.53C160.234 82.7033 159.884 82.79 159.524 82.79ZM155.574 78.3C154.794 78.3 154.134 78.1533 153.594 77.86C153.054 77.56 152.644 77.1633 152.364 76.67C152.09 76.1767 151.954 75.6333 151.954 75.04C151.954 74.52 152.04 74.0533 152.214 73.64C152.387 73.22 152.654 72.86 153.014 72.56C153.374 72.2533 153.84 72.0033 154.414 71.81C154.847 71.67 155.354 71.5433 155.934 71.43C156.52 71.3167 157.154 71.2133 157.834 71.12C158.52 71.02 159.237 70.9133 159.984 70.8L159.124 71.29C159.13 70.5433 158.964 69.9933 158.624 69.64C158.284 69.2867 157.71 69.11 156.904 69.11C156.417 69.11 155.947 69.2233 155.494 69.45C155.04 69.6767 154.724 70.0667 154.544 70.62L152.344 69.93C152.61 69.0167 153.117 68.2833 153.864 67.73C154.617 67.1767 155.63 66.9 156.904 66.9C157.864 66.9 158.707 67.0567 159.434 67.37C160.167 67.6833 160.71 68.1967 161.064 68.91C161.257 69.29 161.374 69.68 161.414 70.08C161.454 70.4733 161.474 70.9033 161.474 71.37V78H159.364V75.66L159.714 76.04C159.227 76.82 158.657 77.3933 158.004 77.76C157.357 78.12 156.547 78.3 155.574 78.3ZM156.054 76.38C156.6 76.38 157.067 76.2833 157.454 76.09C157.84 75.8967 158.147 75.66 158.374 75.38C158.607 75.1 158.764 74.8367 158.844 74.59C158.97 74.2833 159.04 73.9333 159.054 73.54C159.074 73.14 159.084 72.8167 159.084 72.57L159.824 72.79C159.097 72.9033 158.474 73.0033 157.954 73.09C157.434 73.1767 156.987 73.26 156.614 73.34C156.24 73.4133 155.91 73.4967 155.624 73.59C155.344 73.69 155.107 73.8067 154.914 73.94C154.72 74.0733 154.57 74.2267 154.464 74.4C154.364 74.5733 154.314 74.7767 154.314 75.01C154.314 75.2767 154.38 75.5133 154.514 75.72C154.647 75.92 154.84 76.08 155.094 76.2C155.354 76.32 155.674 76.38 156.054 76.38ZM168.217 83.1C167.617 83.1 167.04 83.0067 166.487 82.82C165.94 82.6333 165.447 82.3633 165.007 82.01C164.567 81.6633 164.207 81.2433 163.927 80.75L166.147 79.65C166.354 80.0433 166.644 80.3333 167.017 80.52C167.397 80.7133 167.8 80.81 168.227 80.81C168.727 80.81 169.174 80.72 169.567 80.54C169.96 80.3667 170.264 80.1067 170.477 79.76C170.697 79.42 170.8 78.9933 170.787 78.48V75.41H171.087V67.2H173.197V78.52C173.197 78.7933 173.184 79.0533 173.157 79.3C173.137 79.5533 173.1 79.8 173.047 80.04C172.887 80.74 172.58 81.3133 172.127 81.76C171.674 82.2133 171.11 82.55 170.437 82.77C169.77 82.99 169.03 83.1 168.217 83.1ZM168.007 78.3C167.014 78.3 166.147 78.05 165.407 77.55C164.667 77.05 164.094 76.37 163.687 75.51C163.28 74.65 163.077 73.68 163.077 72.6C163.077 71.5067 163.28 70.5333 163.687 69.68C164.1 68.82 164.684 68.1433 165.437 67.65C166.19 67.15 167.077 66.9 168.097 66.9C169.124 66.9 169.984 67.15 170.677 67.65C171.377 68.1433 171.907 68.82 172.267 69.68C172.627 70.54 172.807 71.5133 172.807 72.6C172.807 73.6733 172.627 74.6433 172.267 75.51C171.907 76.37 171.37 77.05 170.657 77.55C169.944 78.05 169.06 78.3 168.007 78.3ZM168.377 76.14C169.024 76.14 169.544 75.9933 169.937 75.7C170.337 75.4 170.627 74.9833 170.807 74.45C170.994 73.9167 171.087 73.3 171.087 72.6C171.087 71.8933 170.994 71.2767 170.807 70.75C170.627 70.2167 170.344 69.8033 169.957 69.51C169.57 69.21 169.07 69.06 168.457 69.06C167.81 69.06 167.277 69.22 166.857 69.54C166.437 69.8533 166.127 70.28 165.927 70.82C165.727 71.3533 165.627 71.9467 165.627 72.6C165.627 73.26 165.724 73.86 165.917 74.4C166.117 74.9333 166.42 75.3567 166.827 75.67C167.234 75.9833 167.75 76.14 168.377 76.14ZM179.651 78.31C178.851 78.31 178.191 78.1767 177.671 77.91C177.151 77.6433 176.738 77.3033 176.431 76.89C176.125 76.4767 175.898 76.0367 175.751 75.57C175.605 75.1033 175.508 74.6633 175.461 74.25C175.421 73.83 175.401 73.49 175.401 73.23V67.2H177.841V72.4C177.841 72.7333 177.865 73.11 177.911 73.53C177.958 73.9433 178.065 74.3433 178.231 74.73C178.405 75.11 178.658 75.4233 178.991 75.67C179.331 75.9167 179.788 76.04 180.361 76.04C180.668 76.04 180.971 75.99 181.271 75.89C181.571 75.79 181.841 75.62 182.081 75.38C182.328 75.1333 182.525 74.7967 182.671 74.37C182.818 73.9433 182.891 73.4033 182.891 72.75L184.321 73.36C184.321 74.28 184.141 75.1133 183.781 75.86C183.428 76.6067 182.905 77.2033 182.211 77.65C181.518 78.09 180.665 78.31 179.651 78.31ZM183.181 78V74.65H182.891V67.2H185.311V78H183.181Z" fill="#002D33"></path>
  <defs>
    <linearGradient id="paint0_linear_7818_1761" x1="0" y1="42" x2="78.2609" y2="42" gradientUnits="userSpaceOnUse">
      <stop stop-color="#1E6954"></stop>
      <stop offset="1" stop-color="#104936"></stop>
    </linearGradient>
    <linearGradient id="paint1_linear_7818_1761" x1="28.9144" y1="27.3832" x2="48.4504" y2="76.4729" gradientUnits="userSpaceOnUse">
      <stop stop-color="#1E6954"></stop>
      <stop offset="1" stop-color="#104936"></stop>
    </linearGradient>
    <clipPath id="clip0_7818_1761">
      <rect width="78.2609" height="80.035" fill="white" transform="translate(0 1.98247)"></rect>
    </clipPath>
  </defs>
</svg>
