<?xml version="1.0" standalone="no"?>
<!DOCTYPE svg PUBLIC "-//W3C//DTD SVG 20010904//EN" "http://www.w3.org/TR/2001/REC-SVG-20010904/DTD/svg10.dtd">
<svg version="1.0" xmlns="http://www.w3.org/2000/svg"
    width="720.000000pt" height="520.000000pt" viewBox="0 0 720.000000 520.000000"
    preserveAspectRatio="xMidYMid meet">

    <g transform="translate(0.000000,520.000000) scale(0.200000,-0.200000)"
        fill="#005a8c" stroke="#005a8c" stroke-width="200" stroke-linejoin="round">
        <path d="M1510 2158 c-5 -13 -41 -144 -80 -293 -40 -148 -80 -299 -90 -335
            -10 -36 -34 -126 -54 -200 -20 -74 -65 -243 -100 -375 -35 -132 -74 -277 -86
            -321 -27 -103 -24 -134 14 -147 23 -8 32 -6 46 9 11 12 71 218 164 569 81 303
            179 668 218 813 69 254 70 263 53 282 -25 28 -73 26 -85 -2z"/>
        <path d="M2421 2163 c-5 -10 -70 -247 -146 -528 -75 -280 -173 -645 -217 -809
            -57 -210 -78 -304 -71 -315 15 -24 62 -36 79 -19 16 16 17 19 150 515 52 197
            108 405 124 463 137 513 170 641 170 663 0 43 -69 66 -89 30z"/>
        <path d="M1911 1976 c-15 -18 -201 -711 -201 -748 0 -32 30 -53 65 -44 27 7
            26 4 90 246 26 96 64 238 85 315 56 205 56 209 29 229 -29 20 -53 20 -68 2z"/>
    </g>
</svg>